Coordinates
version=1
nRows=12
nColumns=23
inDegrees=yes

Units are S.I. units (second, meters, Newtons, ...)
Angles are in degrees.

endheader
time	pelvis_tilt	pelvis_list	pelvis_rotation	pelvis_tx	pelvis_ty	pelvis_tz	hip_flexion_r	hip_adduction_r	hip_rotation_r	knee_angle_r	knee_angle_r_beta	ankle_angle_r	subtalar_angle_r	mtp_angle_r	hip_flexion_l	hip_adduction_l	hip_rotation_l	knee_angle_l	knee_angle_l_beta	ankle_angle_l	subtalar_angle_l	mtp_angle_l
    120.99555600	     -6.20073920	      0.17817427	     -0.69667076	      0.00183652	      1.34987736	      0.22049117	     49.85348641	     -3.63124989	      2.95284511	     92.38209094	      1.61237166	      9.60940517	      0.00000000	      0.00000000	     49.69378611	     -7.21514868	     -9.26231874	     52.37003158	      0.91402948	      4.59250721	      0.00000000	      0.00000000
    121.00444400	     -6.28921993	     -0.22839691	     -1.22904143	      0.00222183	      1.34998855	      0.22015952	     51.29775088	     -3.17766907	      2.84265750	     94.44704808	      1.64841196	     10.10149964	      0.00000000	      0.00000000	     47.89197153	     -7.59053299	     -9.55129106	     49.43553294	      0.86281282	      3.52300959	      0.00000000	      0.00000000
    121.01333300	     -6.37053919	     -0.65652888	     -1.77072896	      0.00249315	      1.35005936	      0.21988311	     52.75656954	     -2.70332097	      2.70009428	     96.38580584	      1.68224966	     10.54358676	      0.00000000	      0.00000000	     46.11386404	     -7.99950767	     -9.85607052	     46.61377124	      0.81356378	      2.39536261	      0.00000000	      0.00000000
    121.02222200	     -6.49339869	     -1.06360754	     -2.29563234	      0.00272010	      1.35005540	      0.21961224	     54.26914760	     -2.26484793	      2.54208265	     98.19067300	      1.71375054	     10.95454906	      0.00000000	      0.00000000	     44.42510780	     -8.39135647	    -10.19595732	     43.94155054	      0.76692474	      1.24658441	      0.00000000	      0.00000000
    121.03111100	     -6.57737469	     -1.47879635	     -2.80223515	      0.00286370	      1.35009059	      0.21945181	     55.73655114	     -1.82302891	      2.35389216	     99.86276648	      1.74293408	     11.36988275	      0.00000000	      0.00000000	     42.75496236	     -8.80102746	    -10.56599766	     41.41522120	      0.72283197	     -0.04654984	      0.00000000	      0.00000000
    121.04000000	     -6.70896894	     -1.83868179	     -3.28092732	      0.00298237	      1.34999464	      0.21934279	     57.25847621	     -1.43672505	      2.17887428	    101.42100643	      1.77013049	     11.83098381	      0.00000000	      0.00000000	     41.20508741	     -9.16069103	    -10.96774250	     39.06314559	      0.68178051	     -1.34699915	      0.00000000	      0.00000000
    121.04888900	     -6.80064425	     -2.19574656	     -3.72725309	      0.00302929	      1.34994994	      0.21931896	     58.71000467	     -1.06196347	      1.97844343	    102.83132092	      1.79474512	     12.35137474	      0.00000000	      0.00000000	     39.70383067	     -9.51959725	    -11.36751586	     36.91010769	      0.64420291	     -2.75338028	      0.00000000	      0.00000000
    121.05777800	     -6.87387752	     -2.52972638	     -4.12881073	      0.00307369	      1.34989982	      0.21934641	     60.10545775	     -0.73180793	      1.74437909	    104.10173074	      1.81691796	     12.95662002	      0.00000000	      0.00000000	     38.27754102	     -9.85648671	    -11.78794077	     34.96456873	      0.61024685	     -4.18722912	      0.00000000	      0.00000000
    121.06666700	     -6.91789479	     -2.83317457	     -4.47457757	      0.00307353	      1.34988115	      0.21941507	     61.42394245	     -0.45798686	      1.48974264	    105.22413646	      1.83650763	     13.65465734	      0.00000000	      0.00000000	     36.92617997	    -10.15525174	    -12.19885833	     33.24214860	      0.58018494	     -5.62772294	      0.00000000	      0.00000000
    121.07555600	     -6.94217874	     -3.09674149	     -4.80424071	      0.00300770	      1.34984017	      0.21953618	     62.68241910	     -0.19601404	      1.26491080	    106.20026971	      1.85354437	     14.44707142	      0.00000000	      0.00000000	     35.66706176	    -10.42093987	    -12.52923242	     31.79449541	      0.55491863	     -7.00666401	      0.00000000	      0.00000000
    121.08444400	     -6.95099634	     -3.32509553	     -5.07906461	      0.00295127	      1.34982839	      0.21968856	     63.86008662	      0.00354623	      1.01176349	    107.01621099	      1.86778523	     15.32886284	      0.00000000	      0.00000000	     34.50134546	    -10.65017917	    -12.85748162	     30.59245079	      0.53393899	     -8.29725159	      0.00000000	      0.00000000
    121.09333300	     -6.96826907	     -3.51533655	     -5.31938687	      0.00287312	      1.34979993	      0.21988809	     64.98540424	      0.16706098	      0.75541110	    107.65843784	      1.87899421	     16.27527144	      0.00000000	      0.00000000	     33.46489212	    -10.84696051	    -13.11803644	     29.67849374	      0.51798743	     -9.38389735	      0.00000000	      0.00000000
